<?xml version="1.0" standalone="no"?><!DOCTYPE svg PUBLIC "-//W3C//DTD SVG 1.1//EN" "http://www.w3.org/Graphics/SVG/1.1/DTD/svg11.dtd"><svg t="1609306560755" class="icon" viewBox="0 0 1024 1024" version="1.1" xmlns="http://www.w3.org/2000/svg" p-id="32983" data-spm-anchor-id="a313x.7781069.0.i16" xmlns:xlink="http://www.w3.org/1999/xlink" width="100" height="100"><defs><style type="text/css"></style></defs><path d="M665.6 665.6H358.4a51.2 51.2 0 0 1-51.2-51.2V204.8a51.2 51.2 0 0 1 51.2-51.2h307.2V76.8a25.6 25.6 0 0 0-25.6-25.6h-563.2a25.6 25.6 0 0 0-25.6 25.6v870.4a25.6 25.6 0 0 0 25.6 25.6h563.2a25.6 25.6 0 0 0 25.6-25.6V665.6z m51.2 0v281.6a76.8 76.8 0 0 1-76.8 76.8h-563.2A76.8 76.8 0 0 1 0 947.2v-870.4A76.8 76.8 0 0 1 76.8 0h563.2A76.8 76.8 0 0 1 716.8 76.8V153.6h256a51.2 51.2 0 0 1 51.2 51.2v409.6a51.2 51.2 0 0 1-51.2 51.2h-256zM358.4 307.2h614.4V204.8H358.4v102.4z m614.4 51.2H358.4v256h614.4V358.4zM358.4 921.6a102.4 102.4 0 1 1 0-204.8 102.4 102.4 0 0 1 0 204.8z m0-51.2a51.2 51.2 0 1 0 0-102.4 51.2 51.2 0 0 0 0 102.4z" p-id="32984" data-spm-anchor-id="a313x.7781069.0.i15" class="selected" fill="#ffffff"></path></svg>