<svg xmlns="http://www.w3.org/2000/svg" xmlns:xlink="http://www.w3.org/1999/xlink" fill="none" version="1.1" width="34" height="34" viewBox="0 0 34 34"><defs><clipPath id="master_svg0_37419_51046"><rect x="0" y="0" width="34" height="34" rx="0"/></clipPath></defs><g clip-path="url(#master_svg0_37419_51046)"><g><path d="M22.129646796875,26.7969175C22.867726796875,26.7969175,23.466066796875,27.3947675,23.466066796875,28.1322875C23.466066796875,28.8697875,22.867726796875,29.4675875,22.129646796875,29.4675875C19.792136796875,29.4675875,17.897220039365,27.5741975,17.897216796875,25.238567500000002L17.897216796875,22.3462175C17.897220039365,20.0105875,19.792136796875,18.1171875,22.129646796875,18.1171875L25.024326796875002,18.1171875C27.361836796875,18.1171875,29.256716796875,20.0105875,29.256716796875,22.3462175L29.256716796875,22.5665475C29.256716796875,23.3040375,28.658416796875002,23.9018975,27.920316796875,23.9018975C27.182256796875002,23.9018975,26.583926796874998,23.3040375,26.583926796874998,22.5665475L26.583926796874998,22.3462175C26.583926796874998,21.4849275,25.886316796875,20.7878775,25.024326796875002,20.7878775L22.129646796875,20.7878775C21.267656796875,20.7878775,20.570046796875,21.4849275,20.570046796875,22.3462175L20.570046796875,25.238567500000002C20.570046796875,26.099867500000002,21.267656796875,26.7969175,22.129646796875,26.7969175Z" fill="#1890FF" fill-opacity="1"/></g><g><path d="M8.542453125,7.434359687500001C7.804373125,7.434359687500001,7.206033124999999,8.0322096875,7.206033124999999,8.769699687500001L7.206033124999999,12.108059687499999C7.206033124999999,12.8455496875,7.804373125,13.4433996875,8.542453125,13.4433996875L11.883493125000001,13.4433996875C12.621573125,13.4433996875,13.219913125,12.8455496875,13.219913125,12.108059687499999L13.219913125,8.769699687500001C13.219913125,8.0322096875,12.621573125,7.434359687500001,11.883493125000001,7.434359687500001L8.542453125,7.434359687500001ZM8.542453125,4.7636706875L11.883493125000001,4.7636706875C14.097743125,4.7636706875,15.892703125,6.5572296875,15.892703125,8.769699687500001L15.892703125,12.108059687499999C15.892703125,14.3205296875,14.097743125,16.114079687500002,11.883493125000001,16.114079687500002L8.542453125,16.114079687500002C6.328203125,16.114079687500002,4.533203125,14.3205296875,4.533203125,12.108059687499999L4.533203125,8.769699687500001C4.533203125,6.5572296875,6.328203125,4.7636706875,8.542453125,4.7636706875ZM8.542453125,20.7877796875C7.804373125,20.7877796875,7.206033124999999,21.3856796875,7.206033124999999,22.1230796875L7.206033124999999,25.4614796875C7.206033124999999,26.1989796875,7.804373125,26.7967796875,8.542453125,26.7967796875L11.883493125000001,26.7967796875C12.621573125,26.7967796875,13.219913125,26.1989796875,13.219913125,25.4614796875L13.219913125,22.1230796875C13.219913125,21.3856796875,12.621573125,20.7877796875,11.883493125000001,20.7877796875L8.542453125,20.7877796875ZM8.542453125,18.117079687500002L11.883493125000001,18.117079687500002C14.097743125,18.117079687500002,15.892703125,19.9106796875,15.892703125,22.1230796875L15.892703125,25.4614796875C15.892703125,27.6739796875,14.097743125,29.4674796875,11.883493125000001,29.4674796875L8.542453125,29.4674796875C6.328203125,29.4674796875,4.533203125,27.6739796875,4.533203125,25.4614796875L4.533203125,22.1230796875C4.533203125,19.9106796875,6.328203125,18.117079687500002,8.542453125,18.117079687500002ZM24.512603125,7.5959296875C23.990803125,7.0746396874999995,23.144803125,7.0746396874999995,22.622903125,7.5959296875L20.730603125,9.485439687500001C20.208903125,10.0068896875,20.208903125,10.8521696875,20.730603125,11.3736196875L22.621603125,13.2617896875C23.143503125,13.7830896875,23.989403125,13.7830896875,24.511303125,13.2617896875L26.401003125,11.3736196875C26.922703125,10.8521696875,26.922703125,10.0068896875,26.401003125,9.485439687500001L24.512603125,7.594599687500001L24.512603125,7.5959296875ZM26.402303125,5.7077596875L28.292003125,7.5959296875C29.858003125,9.1604396875,29.858003125,11.6972896875,28.292003125,13.2617896875L26.402303125,15.1499796875C24.836603125,16.7147796875,22.297703125,16.7147796875,20.731903125,15.1499796875L18.842203124999997,13.2617896875C17.276203125000002,11.6972896875,17.276203125000002,9.1604396875,18.842203124999997,7.5959296875L20.731903125,5.7077596875C22.297703125,4.1429866875,24.836603125,4.1429866875,26.402303125,5.7077596875Z" fill="#020B2B" fill-opacity="1"/></g></g></svg>