<?xml version="1.0" standalone="no"?><!DOCTYPE svg PUBLIC "-//W3C//DTD SVG 1.1//EN" "http://www.w3.org/Graphics/SVG/1.1/DTD/svg11.dtd"><svg t="1609307588210" class="icon" viewBox="0 0 1024 1024" version="1.1" xmlns="http://www.w3.org/2000/svg" p-id="100129" xmlns:xlink="http://www.w3.org/1999/xlink" width="100" height="100"><defs><style type="text/css"></style></defs><path d="M46.94676 95.012856 46.94676 95.012856 46.94676 95.012856zM383.94676 161.527656c15.5862 0 28.9198 5.3966 40.0004 16.1898 11.0806 10.7932 16.621 23.9734 16.621 39.541l0 224.677c0 15.5862-5.5404 28.9198-16.621 40.0004-11.0806 11.0806-24.4142 16.621-40.0004 16.621L159.26976 498.556856c-15.5862 0-28.7666-5.5402-39.541-16.621-10.7744-11.0806-16.171-24.4142-16.1896-40.0004L103.53916 217.258456c0-15.5862 5.3966-28.7666 16.1896-39.541s23.9734-16.171 39.541-16.1896C159.26976 161.527656 383.94676 161.527656 383.94676 161.527656zM383.94676 610.851856c15.5862 0 28.9198 5.3966 40.0004 16.1896 11.0806 10.7932 16.621 23.9734 16.621 39.541l0 225.5686c0 15.5862-5.5404 28.7666-16.621 39.541-11.0806 10.7746-24.4142 16.171-40.0004 16.1896L159.26976 947.881656c-15.5862 0-28.7666-5.3964-39.541-16.1896-10.7744-10.7932-16.171-23.9736-16.1896-39.541L103.53916 666.582456c0-15.5862 5.3966-28.7666 16.1896-39.541s23.9734-16.171 39.541-16.1896L383.94676 610.851856zM834.16336 610.851856c15.5862 0 28.7666 5.3966 39.541 16.1896 10.7746 10.7932 16.171 23.9734 16.1898 39.541l0 225.5686c0 15.5862-5.3966 28.7666-16.1898 39.541-10.7932 10.7746-23.9734 16.171-39.541 16.1896L609.48636 947.881656c-15.5862 0-28.9198-5.3964-40.0004-16.1896-11.0806-10.7932-16.621-23.9736-16.621-39.541L552.86496 666.582456c0-15.5862 5.5404-28.7666 16.621-39.541 11.0806-10.7744 24.4142-16.171 40.0004-16.1896L834.16336 610.851856 834.16336 610.851856zM959.08276 260.364856c11.9818 11.982 17.973 26.0632 17.9728 42.2438 0 16.1806-5.991 29.9648-17.9728 41.3522l-167.1632 167.1632c-11.982 11.9818-25.9098 17.9728-41.7836 17.9728-15.8738 0-29.8016-5.991-41.7834-17.9728l-167.1632-167.1632c-11.3876-11.3876-17.0812-25.1716-17.0812-41.3522s5.6938-30.262 17.0812-42.2438l167.1632-167.1632c11.9818-11.3876 25.9098-17.0812 41.7834-17.0812 15.8738 0 29.8016 5.6938 41.7836 17.0812L959.08276 260.364856z" p-id="100130" data-spm-anchor-id="a313x.7781069.0.i71" class="selected" fill="#ffffff"></path></svg>