<svg xmlns="http://www.w3.org/2000/svg" xmlns:xlink="http://www.w3.org/1999/xlink" fill="none" version="1.1" width="34" height="34.000003814697266" viewBox="0 0 34 34.000003814697266"><defs><clipPath id="master_svg0_37419_51050"><rect x="0" y="0" width="34" height="34.000003814697266" rx="0"/></clipPath></defs><g clip-path="url(#master_svg0_37419_51050)"><g><path d="M17.226972734375,19.720703125C18.791772734375,19.720703125,20.060302734375,18.452173125,20.060302734375,16.887373125C20.060302734375,15.322563125,18.791772734375,14.054033125,17.226972734375,14.054033125C15.662162734375,14.054033125,14.393632734375,15.322563125,14.393632734375,16.887373125C14.393632734375,18.452173125,15.662162734375,19.720703125,17.226972734375,19.720703125ZM17.226972734375,22.554003125C14.097352734375,22.554003125,11.560302734375,20.016983125,11.560302734375,16.887373125C11.560302734375,13.757753125,14.097352734375,11.220703125,17.226972734375,11.220703125C20.356582734375,11.220703125,22.893602734375,13.757753125,22.893602734375,16.887373125C22.893602734375,20.016983125,20.356582734375,22.554003125,17.226972734375,22.554003125Z" fill="#1890FF" fill-opacity="1"/></g><g><path d="M17.283203125,30.175290625L24.295703125,23.162790625C28.168103125,19.289990625,28.167903125,13.011280625,24.295203125,9.138740625C20.422603125000002,5.266190625,14.143853125,5.266190625,10.271183125,9.138730625C6.3985031249999995,13.011270625,6.398293125,19.289990625,10.270703125,23.162790625L17.283203125,30.175290625ZM17.283203125,34.181590625L8.267533125,25.165990625C3.288393125,20.186790625,3.288433125,12.113920625,8.267613125,7.134760625C13.246793125,2.155600625,21.319603125,2.155600625,26.298803125,7.134760625C31.278003125,12.113920625,31.278003125,20.186790625,26.298903125,25.165990625L17.283203125,34.181590625Z" fill="#000000" fill-opacity="1"/></g></g></svg>