<svg xmlns="http://www.w3.org/2000/svg" xmlns:xlink="http://www.w3.org/1999/xlink" fill="none" version="1.1" width="34" height="34" viewBox="0 0 34 34"><defs><clipPath id="master_svg0_37419_51053"><rect x="0" y="0" width="34" height="34" rx="0"/></clipPath></defs><g clip-path="url(#master_svg0_37419_51053)"><g><path d="M21.249951953125,6.491296875L21.249951953125,17.000096875C21.248551953125,19.537296875,19.038851953125,21.508196875,16.518051953125,21.220496875C13.997151953125,20.932796875,12.288341953125,18.514796875000002,12.858651953125,16.042496874999998C13.429051953125,13.570296875,16.024451953125002,12.145226875,18.416551953125,12.990996875L18.416551953125,2.904296875C25.574951953125,3.614046875,31.166551953125,9.654716875,31.166551953125,17.000096875C31.166551953125,24.824396875,24.824151953125,31.166796875,16.999951953125,31.166796875C9.175671953125,31.166796875,2.833251953125,24.824396875,2.833251953125,17.000096875C2.833251953125,9.654716875,8.424831953125,3.614046875,15.583251953125,2.904297199249L15.583251953125,5.754626875C9.652081953125,6.509316875,5.327051953125,11.741246875,5.7014619531249995,17.708496875C6.075861953125,23.675796875,11.020931953125,28.326096875,16.999951953125,28.333496875C22.426951953125,28.336496875,27.094451953125,24.491896875,28.130951953125,19.164796875C29.167451953125,13.837596875,26.282151953125,8.523396875,21.249951953125,6.491296875Z" fill="#000000" fill-opacity="1"/></g><g><ellipse cx="17.00002956390381" cy="16.99929714202881" rx="2.7200002670288086" ry="2.7200002670288086" fill="#1890FF" fill-opacity="1"/></g></g></svg>