<svg xmlns="http://www.w3.org/2000/svg" xmlns:xlink="http://www.w3.org/1999/xlink" fill="none" version="1.1" width="32" height="32" viewBox="0 0 32 32"><defs><clipPath id="master_svg0_37419_33639"><rect x="0" y="0" width="32" height="32" rx="0"/></clipPath><linearGradient x1="1.0040814876556396" y1="1.8366693721461047e-9" x2="-2.8531008666732305e-8" y2="1.0068026781082153" id="master_svg1_33556_62141"><stop offset="0%" stop-color="#39AFFD" stop-opacity="1"/><stop offset="100%" stop-color="#477FFF" stop-opacity="1"/></linearGradient></defs><g clip-path="url(#master_svg0_37419_33639)"><g><path d="M23.3801390625,16.685692187500003L22.4521390625,14.2909921875C22.4521390625,14.2629921875,22.4654390625,13.7909921875,22.4654390625,13.5469921875C22.4641390625,9.450992187499999,20.5948390625,5.3336621875,16.0001390625,5.3336621875C11.4054690625,5.3336621875,9.5361390625,9.450992187499999,9.5361390625,13.5469921875C9.5361390625,13.7909921875,9.548139062499999,14.2629921875,9.5494690625,14.2909921875L8.621469062500001,16.685692187500003C8.3681390625,17.3722921875,8.114809062500001,18.0856921875,7.9321390625,18.6989921875C7.0561390625,21.6176921875,7.3401390625000005,22.8256921875,7.5561390625,22.8522921875Q8.0201390625,22.9096921875,9.3614690625,20.6549921875C9.3614690625,21.9616921875,10.012139062500001,23.6656921875,11.4174690625,24.8949921875C10.8921390625,25.0642921875,10.246809062499999,25.3216921875,9.8334690625,25.6376921875C9.4601390625,25.9229921875,9.5068090625,26.2122921875,9.5748090625,26.3309921875C9.8681390625,26.8442921875,14.6281390625,26.6576921875,16.001439062499998,26.4976921875C17.3748390625,26.6576921875,22.1334390625,26.8442921875,22.4281390625,26.3296921875C22.4948390625,26.2122921875,22.5414390625,25.9229921875,22.1694390625,25.6376921875C21.7548390625,25.3216921875,21.1094390625,25.0642921875,20.5828390625,24.8962921875C21.9894390625,23.6656921875,22.6388390625,21.9602921875,22.6388390625,20.6549921875Q23.9814390625,22.9096921875,24.4454390625,22.8522921875C24.6614390625,22.8256921875,24.9494390625,21.6149921875,24.0681390625,18.6976921875C23.8814390625,18.0802921875,23.6348390625,17.3722921875,23.3801390625,16.685692187500003ZM24.7414390625,27.6549921875C24.2441390625,28.5242921875,23.6308390625,28.8442921875,22.8241390625,29.0642921875C22.5041390625,29.1509921875,22.1601390625,29.2082921875,21.7654390625,29.2482921875C21.1788390625,29.3082921875,20.450839062500002,29.3349921875,19.6148390625,29.3336921875C18.4087390625,29.3312921875,17.2033390625,29.2796921875,16.001439062499998,29.1789921875C15.0788390625,29.2656921875,13.6214690625,29.3309921875,12.388139062499999,29.3336921875C11.6698290625,29.3412921875,10.9515890625,29.3127921875,10.236139062500001,29.2482921875C9.8792690625,29.2158921875,9.525649062500001,29.1543921875,9.178809062500001,29.0642921875C8.3721390625,28.8456921875,7.7588090625,28.5242921875,7.2588090625,27.6522921875C6.8772090625,26.9850921875,6.763309062499999,26.1976921875,6.9401390625,25.4496921875C6.1508090625000005,25.2736921875,5.6054730625,24.8056921875,5.2348070625,24.2349921875C5.0477570625,23.9434921875,4.9086580625,23.6238921875,4.8228070625,23.2882921875C4.7033173625,22.8062921875,4.6512660625,22.3099921875,4.6681400925,21.8136921875C4.6854734625,20.7669921875,4.9174730625,19.4642921875,5.3774730625,17.9309921875C5.5641400625,17.309692187499998,5.8134690625,16.5869921875,6.1348090625000005,15.7242921875L6.8721390625000005,13.8176921875C6.8706590625,13.7274921875,6.8697690625,13.6371921875,6.8694690625,13.5469921875C6.8694690625,7.4736621875,10.1174690625,2.6669921875,16.0001390625,2.6669921875C21.8841390625,2.6669921875,25.1308390625,7.4736621875,25.1308390625,13.5469921875L25.1294390625,13.8176921875L25.8668390625,15.7242921875L25.8801390625,15.7589921875C26.1801390625,16.5669921875,26.4308390625,17.2962921875,26.6214390625,17.926992187499998C27.0854390625,19.4602921875,27.3174390625,20.7656921875,27.3348390625,21.8149921875C27.3441390625,22.3576921875,27.2948390625,22.8496921875,27.1774390625,23.2922921875C27.0894390625,23.6202921875,26.9628390625,23.9322921875,26.7641390625,24.2362921875C26.3961390625,24.8056921875,25.8521390625,25.2709921875,25.0614390625,25.4496921875C25.2348390625,26.1882921875,25.1348390625,26.9696921875,24.7414390625,27.6549921875Z" fill="url(#master_svg1_33556_62141)" fill-opacity="1"/></g></g></svg>