<svg xmlns="http://www.w3.org/2000/svg" xmlns:xlink="http://www.w3.org/1999/xlink" fill="none" version="1.1" width="32" height="32" viewBox="0 0 32 32"><defs><clipPath id="master_svg0_37419_33643"><rect x="0" y="0" width="32" height="32" rx="0"/></clipPath><linearGradient x1="1.0040814876556396" y1="1.8366693721461047e-9" x2="-2.8531008666732305e-8" y2="1.0068026781082153" id="master_svg1_33556_62141"><stop offset="0%" stop-color="#39AFFD" stop-opacity="1"/><stop offset="100%" stop-color="#477FFF" stop-opacity="1"/></linearGradient></defs><g clip-path="url(#master_svg0_37419_33643)"><g><path d="M7.684078046875,22.6667L26.666748046875,22.6667L26.666748046875,6.66667L5.333418046875,6.66667L5.333418046875,24.5133L7.684078046875,22.6667ZM8.606748046875001,25.3333L2.666748046875,30L2.666748046875,5.33333C2.666748046875,4.596954,3.263702046875,4,4.000078046875,4L28.000048046875,4C28.736448046875,4,29.333448046875,4.596954,29.333448046875,5.33333L29.333448046875,24C29.333448046875,24.7364,28.736448046875,25.3333,28.000048046875,25.3333L8.606748046875001,25.3333ZM14.666748046875,18.6667L17.333448046875,18.6667L17.333448046875,21.3333L14.666748046875,21.3333L14.666748046875,18.6667ZM11.422748046875,11.75067C11.904578046875,9.33929,14.174448046875,7.71521,16.612348046875,8.03763C19.050148046875,8.36004,20.819748046875,10.51837,20.658148046875,12.9721C20.496648046875,15.4257,18.459248046875,17.3333,16.000048046875,17.3333L14.666748046875,17.3333L14.666748046875,14.6667L16.000048046875,14.6667C17.053648046875,14.6666,17.926448046875002,13.84927,17.995648046875,12.79801C18.064848046875,11.746749999999999,17.306648046875,10.82207,16.262148046874998,10.68393C15.217748046875,10.5458,14.245248046875,11.24157,14.038748046875,12.27467L11.422748046875,11.75067Z" fill="url(#master_svg1_33556_62141)" fill-opacity="1"/></g></g></svg>